<svg id="Layer_1" data-name="Layer 1" xmlns="http://www.w3.org/2000/svg" viewBox="0 0 58.25 69.15"><defs><style>.cls-1{fill:#0a2ff1;}</style></defs><title>icon-apple</title><path id="path4" class="cls-1" d="M312.25,419.2a37.6,37.6,0,0,1-3.72,6.69,34.1,34.1,0,0,1-4.79,5.79,9.36,9.36,0,0,1-6.15,2.71A15.41,15.41,0,0,1,291.9,433a16.23,16.23,0,0,0-6.12-1.35,16.75,16.75,0,0,0-6.29,1.35,17,17,0,0,1-5.44,1.43c-2.11.09-4.2-.84-6.3-2.78a36.67,36.67,0,0,1-5-6,41.46,41.46,0,0,1-5.29-10.52,38.54,38.54,0,0,1-2.23-12.54,22.87,22.87,0,0,1,3-12,17.65,17.65,0,0,1,6.3-6.37,16.89,16.89,0,0,1,8.51-2.4,19.94,19.94,0,0,1,6.59,1.53,21.19,21.19,0,0,0,5.22,1.54,31.68,31.68,0,0,0,5.79-1.81,19.18,19.18,0,0,1,7.88-1.4q8.73.7,13.09,6.89-7.8,4.74-7.72,13.24a14.6,14.6,0,0,0,4.79,11,16,16,0,0,0,4.79,3.14c-.38,1.11-.79,2.18-1.22,3.2Zm-13.34-52.5a14.74,14.74,0,0,1-3.79,9.67c-3,3.56-6.71,5.61-10.7,5.29a11.11,11.11,0,0,1-.08-1.31,15.18,15.18,0,0,1,4-9.78,15.56,15.56,0,0,1,4.89-3.67,14.59,14.59,0,0,1,5.59-1.59,13.1,13.1,0,0,1,.08,1.39Z" transform="translate(-255.22 -365.31)"/></svg>