<svg id="Layer_1" data-name="Layer 1" xmlns="http://www.w3.org/2000/svg" viewBox="0 0 61 61"><defs><style>.cls-1{fill:#0a2ff1;}</style></defs><title>icon-chrome</title><path class="cls-1" d="M593.5,425.31a14.92,14.92,0,0,1-8.41-2.52,15.85,15.85,0,0,1-5.68-6.42l-12.62-21.88A31,31,0,0,0,563,409.74a29.44,29.44,0,0,0,7.47,20A30,30,0,0,0,589,439.93l8.83-15.36a12.66,12.66,0,0,1-4.31.74" transform="translate(-563 -379.24)"/><path class="cls-1" d="M583.93,397.12A15,15,0,0,1,593.5,394h26.19a31.31,31.31,0,0,0-26.19-14.73,30.48,30.48,0,0,0-13.36,3.05A28.8,28.8,0,0,0,569.42,391l8.83,14.52a15.34,15.34,0,0,1,5.68-8.42" transform="translate(-563 -379.24)"/><path class="cls-1" d="M621.69,398.28H604a16.38,16.38,0,0,1,5.15,11.46,16,16,0,0,1-2.73,8.94l-12.62,21.56A30.51,30.51,0,0,0,624,409.74a26.66,26.66,0,0,0-2.31-11.46" transform="translate(-563 -379.24)"/><path class="cls-1" d="M593.5,398.17a11.57,11.57,0,1,1-11.57,11.57,11.67,11.67,0,0,1,11.57-11.57" transform="translate(-563 -379.24)"/></svg>