<svg id="Layer_1" data-name="Layer 1" xmlns="http://www.w3.org/2000/svg" viewBox="0 0 67.24 54.44"><defs><style>.cls-1{fill:#0a2ff1;}</style></defs><title>icon-pc</title><path class="cls-1" d="M155.91,372.46H91.21a1.27,1.27,0,0,0-1.27,1.27V416a1.26,1.26,0,0,0,1.27,1.26h26l-.17,1.45h0l-.61,5.25h-2.08a2.93,2.93,0,0,0-2.93,2.93s0,0,0,.05h24.23v-.05a2.93,2.93,0,0,0-2.93-2.93h-2.08l-.75-6.7h26a1.26,1.26,0,0,0,1.27-1.26V373.73A1.27,1.27,0,0,0,155.91,372.46Zm-1.08,41.77H92.3V375.46h62.53Z" transform="translate(-89.94 -372.46)"/></svg>